<?xml version="1.0" encoding="UTF-8" standalone="no"?>
<!-- Created with Inkscape (http://www.inkscape.org/) -->

<svg
   xmlns:dc="http://purl.org/dc/elements/1.1/"
   xmlns:cc="http://creativecommons.org/ns#"
   xmlns:rdf="http://www.w3.org/1999/02/22-rdf-syntax-ns#"
   xmlns:svg="http://www.w3.org/2000/svg"
   xmlns="http://www.w3.org/2000/svg"
   xmlns:xlink="http://www.w3.org/1999/xlink"
   xmlns:sodipodi="http://sodipodi.sourceforge.net/DTD/sodipodi-0.dtd"
   xmlns:inkscape="http://www.inkscape.org/namespaces/inkscape"
   width="744.09448819"
   height="1052.3622047"
   id="svg2995"
   version="1.1"
   inkscape:version="0.91 r13725"
   sodipodi:docname="elements.svg"
   inkscape:export-filename="/Users/aviram/src/digital-business-card/walletcard.png"
   inkscape:export-xdpi="89.996361"
   inkscape:export-ydpi="89.996361">
  <title
     id="title3408">Elements for Digital Business Card</title>
  <defs
     id="defs2997">
    <linearGradient
       inkscape:collect="always"
       xlink:href="#Red_1_"
       id="linearGradient4195"
       gradientUnits="userSpaceOnUse"
       x1="40.110401"
       y1="13.1138"
       x2="40.110298"
       y2="67.1138" />
    <linearGradient
       inkscape:collect="always"
       xlink:href="#Blue_1_"
       id="linearGradient4197"
       gradientUnits="userSpaceOnUse"
       x1="40.110401"
       y1="26.6138"
       x2="40.110401"
       y2="49.451698" />
    <linearGradient
       inkscape:collect="always"
       xlink:href="#Green_1_"
       id="linearGradient4199"
       gradientUnits="userSpaceOnUse"
       x1="40.1665"
       y1="40.1143"
       x2="40.1665"
       y2="60.4907" />
    <linearGradient
       inkscape:collect="always"
       xlink:href="#Red_1_"
       id="linearGradient3143"
       gradientUnits="userSpaceOnUse"
       x1="40.110401"
       y1="13.1138"
       x2="40.110298"
       y2="67.1138" />
    <linearGradient
       inkscape:collect="always"
       xlink:href="#Blue_1_"
       id="linearGradient3145"
       gradientUnits="userSpaceOnUse"
       x1="40.110401"
       y1="26.6138"
       x2="40.110401"
       y2="49.451698" />
    <linearGradient
       inkscape:collect="always"
       xlink:href="#Green_1_"
       id="linearGradient3147"
       gradientUnits="userSpaceOnUse"
       x1="40.1665"
       y1="40.1143"
       x2="40.1665"
       y2="60.4907" />
    <linearGradient
       inkscape:collect="always"
       xlink:href="#Red_1_"
       id="linearGradient3247"
       gradientUnits="userSpaceOnUse"
       x1="40.110401"
       y1="13.1138"
       x2="40.110298"
       y2="67.1138" />
    <linearGradient
       inkscape:collect="always"
       xlink:href="#Blue_1_"
       id="linearGradient3249"
       gradientUnits="userSpaceOnUse"
       x1="40.110401"
       y1="26.6138"
       x2="40.110401"
       y2="49.451698" />
    <linearGradient
       inkscape:collect="always"
       xlink:href="#Green_1_"
       id="linearGradient3251"
       gradientUnits="userSpaceOnUse"
       x1="40.1665"
       y1="40.1143"
       x2="40.1665"
       y2="60.4907" />
    <clipPath
       clipPathUnits="userSpaceOnUse"
       id="clipPath4250">
      <rect
         ry="29.946667"
         y="-211.17114"
         x="899"
         height="1647.0667"
         width="1123"
         id="rect4252"
         style="opacity:0.48600003;fill:#1de833;fill-opacity:1;stroke:none;stroke-width:0.1;stroke-linecap:round;stroke-linejoin:round;stroke-miterlimit:4;stroke-dasharray:none;stroke-opacity:1">
        <title
           id="title4254">Mask for wallet screenshot</title>
      </rect>
    </clipPath>
    <clipPath
       clipPathUnits="userSpaceOnUse"
       id="clipPath4262">
      <rect
         style="opacity:0.48600003;fill:#492fa6;fill-opacity:1;stroke:none;stroke-width:0.1;stroke-linecap:round;stroke-linejoin:round;stroke-miterlimit:4;stroke-dasharray:none;stroke-opacity:1"
         id="rect4264"
         width="406"
         height="406"
         x="1257"
         y="908.3623"
         ry="0" />
    </clipPath>
  </defs>
  <sodipodi:namedview
     id="base"
     pagecolor="#ffffff"
     bordercolor="#666666"
     borderopacity="1.0"
     inkscape:pageopacity="0.0"
     inkscape:pageshadow="2"
     inkscape:zoom="0.20708646"
     inkscape:cx="2802.9138"
     inkscape:cy="118.69511"
     inkscape:document-units="px"
     inkscape:current-layer="layer2"
     showgrid="false"
     inkscape:window-width="1889"
     inkscape:window-height="1117"
     inkscape:window-x="347"
     inkscape:window-y="701"
     inkscape:window-maximized="0" />
  <metadata
     id="metadata3000">
    <rdf:RDF>
      <cc:Work
         rdf:about="">
        <dc:format>image/svg+xml</dc:format>
        <dc:type
           rdf:resource="http://purl.org/dc/dcmitype/StillImage" />
        <dc:title>Elements for Digital Business Card</dc:title>
        <dc:date>2015-11-20</dc:date>
        <dc:creator>
          <cc:Agent>
            <dc:title>Avi Alkalay</dc:title>
          </cc:Agent>
        </dc:creator>
        <dc:rights>
          <cc:Agent>
            <dc:title>Used materials from others, compilation and organization by Avi Alkalay</dc:title>
          </cc:Agent>
        </dc:rights>
        <dc:publisher>
          <cc:Agent>
            <dc:title>Avi Alkalay</dc:title>
          </cc:Agent>
        </dc:publisher>
        <cc:license
           rdf:resource="http://creativecommons.org/licenses/by/3.0/" />
      </cc:Work>
      <cc:License
         rdf:about="http://creativecommons.org/licenses/by/3.0/">
        <cc:permits
           rdf:resource="http://creativecommons.org/ns#Reproduction" />
        <cc:permits
           rdf:resource="http://creativecommons.org/ns#Distribution" />
        <cc:requires
           rdf:resource="http://creativecommons.org/ns#Notice" />
        <cc:requires
           rdf:resource="http://creativecommons.org/ns#Attribution" />
        <cc:permits
           rdf:resource="http://creativecommons.org/ns#DerivativeWorks" />
      </cc:License>
    </rdf:RDF>
  </metadata>
  <g
     inkscape:groupmode="layer"
     id="layer2"
     inkscape:label="Wallet card screenshot maker"
     style="display:inline">
    <image
       sodipodi:absref="passbookscreenshot.png"
       xlink:href="passbookscreenshot.png"
       width="1242"
       height="2208"
       preserveAspectRatio="none"
       style="image-rendering:optimizeSpeed"
       id="image3472"
       x="840"
       y="-425.63782" />
    <rect
       style="stroke:none;stroke-width:0.1;stroke-linecap:round;stroke-linejoin:round;stroke-miterlimit:4;stroke-dasharray:none;stroke-opacity:1"
       id="walletcard-screenshot-mask"
       width="1125"
       height="1650"
       x="2298"
       y="-212.63782"
       ry="30">
      <title
         id="title4224">Mask for wallet screenshot</title>
    </rect>
    <text
       xml:space="preserve"
       style="font-style:normal;font-variant:normal;font-weight:normal;font-stretch:normal;font-size:40px;line-height:125%;font-family:Arial;-inkscape-font-specification:Arial;letter-spacing:0px;word-spacing:0px;fill:#000000;fill-opacity:1;stroke:none;stroke-width:1px;stroke-linecap:butt;stroke-linejoin:miter;stroke-opacity:1"
       x="1219.0627"
       y="-476.37256"
       id="text4232"
       sodipodi:linespacing="125%"><tspan
         sodipodi:role="line"
         id="tspan4234"
         x="1219.0627"
         y="-476.37256"
         style="font-size:75px">Original image</tspan></text>
    <text
       sodipodi:linespacing="125%"
       id="text4236"
       y="-476.37256"
       x="2618.5627"
       style="font-style:normal;font-variant:normal;font-weight:normal;font-stretch:normal;font-size:40px;line-height:125%;font-family:Arial;-inkscape-font-specification:Arial;letter-spacing:0px;word-spacing:0px;fill:#000000;fill-opacity:1;stroke:none;stroke-width:1px;stroke-linecap:butt;stroke-linejoin:miter;stroke-opacity:1"
       xml:space="preserve"><tspan
         style="font-size:75px"
         y="-476.37256"
         x="2618.5627"
         id="tspan4238"
         sodipodi:role="line">Clip mask</tspan></text>
    <g
       id="g4233">
      <use
         style="fill:#ffffff;fill-opacity:1"
         height="100%"
         width="100%"
         transform="translate(1360,0)"
         id="card-vector-border"
         xlink:href="#walletcard-screenshot-mask"
         y="0"
         x="0" />
      <use
         inkscape:export-ydpi="89.996361"
         inkscape:export-xdpi="89.996361"
         clip-path="url(#clipPath4250)"
         transform="translate(2760,0)"
         height="100%"
         width="100%"
         id="card-clipped-screenshot"
         xlink:href="#image3472"
         y="0"
         x="0" />
      <g
         transform="matrix(1.3011151,0,0,1.3011151,-2674.1089,-753.2213)"
         id="opaque-qr-code">
        <rect
           style="opacity:1;fill:#ffffff;fill-opacity:1;stroke:none;stroke-width:0.1;stroke-linecap:round;stroke-linejoin:round;stroke-miterlimit:4;stroke-dasharray:none;stroke-opacity:1"
           id="rect6926"
           width="538"
           height="538"
           x="5030"
           y="1051.8542" />
        <path
           style="fill:#000000"
           d="m 5030,1051.8543 0,129.8616 129.8574,0 0,-129.8616 z m 166.959,0 0,37.1034 18.5508,0 0,-37.1034 z m 0,37.1034 -18.5527,0 0,111.3099 18.5527,0 0,18.5516 37.1015,0 0,37.1033 -18.5507,0 0,-18.5515 -92.75,0 0,-18.5518 37.1015,0 0,-18.5516 -92.7539,0 0,37.1034 18.5508,0 0,-18.5518 18.5507,0 0,18.5518 -18.5507,0 0,18.5515 37.1035,0 0,18.5517 18.5489,0 0,18.5517 18.5526,0 0,-18.5517 -18.5507,0 0,-18.5517 55.6523,0 0,18.5517 18.5488,0 0,18.5517 -18.5488,0 0,18.5517 0,18.5516 18.5508,0 0,-18.5516 37.1015,0 0,-55.6551 18.5509,0 0,-55.6549 -55.6524,0 0,-18.5517 18.5507,0 0,-37.1032 -18.5507,0 0,-18.5518 18.5507,0 0,-18.5516 -18.5507,0 0,0 -18.5488,0 z m 37.1015,18.5516 37.1017,0 0,-55.655 -37.1017,0 z m 0,18.5516 0,18.5518 18.5489,0 0,37.1032 18.5528,0 0,-18.5515 18.5487,0 0,18.5515 -18.5487,0 0,18.5517 18.5487,0 0,18.5516 18.5528,0 0,18.5518 37.1015,0 0,-18.5518 -18.5508,0 0,-37.1033 18.5508,0 0,-18.5515 18.5488,0 0,18.5515 18.5528,0 0,-18.5515 -18.5507,0 0,-18.5517 55.6522,0 0,-18.5518 -37.0996,0 0,-37.1032 -18.5527,0 0,18.5516 -18.5489,0 0,-18.5516 -18.5527,0 0,18.5516 0,18.5516 -55.6483,0 0,18.5518 -18.5509,0 0,-18.5518 z m 148.4063,55.655 0,37.1033 -18.5507,0 0,-18.5516 -18.5509,0 0,18.5516 18.5488,0 0,18.5518 -18.5488,0 0,18.5515 18.5509,0 18.5507,0 0,-18.5515 37.1015,0 0,18.5515 18.5509,0 0,-18.5515 0,-18.5518 18.5507,0 0,18.5518 37.1016,0 0,-18.5518 37.1016,0 0,-18.5516 -92.7521,0 0,18.5516 -37.0996,0 0,-18.5516 18.5507,0 0,-37.1032 -18.5526,0 0,18.5515 z m 37.1015,74.2066 -18.5507,0 0,0 -18.5489,0 0,37.1034 -18.5507,0 0,-18.5517 -18.5509,0 0,-18.5517 -18.5527,0 0,37.1034 -55.6503,0 0,55.6549 18.5487,0 0,18.5517 18.5528,0 0,18.5517 18.5507,0 18.5508,0 0,-18.5517 -18.5508,0 0,-37.1033 18.5508,0 0,-18.5516 -18.5508,0 0,-18.5517 37.0997,0 0,37.1033 18.5527,0 0,-18.5516 18.5489,0 0,18.5516 18.5526,0 0,-18.5516 -18.5507,0 0,-37.1034 18.5507,0 z m 0,55.6551 18.5489,0 0,18.5516 -18.5489,0 0,18.5516 18.5509,0 0,-18.5516 92.7539,0 0,-18.5516 -37.0997,0 0,-18.5517 -18.5527,0 0,18.5517 -18.5489,0 0,-18.5517 -18.5507,0 0,0 -18.5489,0 z m 74.2032,-18.5517 37.1016,0 0,-18.5517 -18.5509,0 0,-18.5517 -18.5507,0 z m 37.1016,-18.5517 18.5507,0 0,-18.5517 -18.5507,0 z m 0,55.655 0,18.5516 18.5507,0 0,-18.5516 z m 0,18.5516 -18.5509,0 0,0 -18.5488,0 0,18.5517 18.5488,0 0,37.1033 18.5528,0 z m 0,55.655 0,18.5517 -18.5528,0 0,18.5516 -18.5488,0 0,-18.5516 0,-18.5517 -37.0997,0 0,-18.5516 37.1016,0 0,-18.5517 -74.1993,0 0,-18.5517 -18.5507,0 0,0 -18.5489,0 0,37.1034 18.5489,0 0,18.5516 37.1015,0 0,18.5517 -37.1015,0 0,37.1033 -18.5489,0 0,18.5515 -18.5527,0 0,18.5518 -18.5489,0 0,18.5517 -18.5508,0 0,-37.1035 18.5508,0 0,-18.5515 -18.5508,0 0,-18.5517 18.5508,0 18.5489,0 0,18.5517 18.5527,0 0,-18.5517 -18.5507,0 0,-18.5516 18.5507,0 0,-37.1033 -37.0996,0 0,18.5516 18.5489,0 0,18.5517 -18.5489,0 0,-18.5517 -18.5527,0 0,37.1033 -55.6483,0 0,18.5517 0,18.5515 -18.5509,0 0,-18.5515 0,-18.5517 18.5509,0 0,-18.5516 0,-18.5517 -18.5509,0 0,-18.5516 18.5509,0 0,-18.5517 -18.5509,0 0,-37.1033 -18.5508,0 0,55.655 -18.5527,0 0,18.5516 -18.5488,0 0,-18.5516 -18.5507,0 0,-18.5517 18.5507,0 0,-37.1033 -18.5507,0 0,0 -18.5489,0 0,18.5516 -37.0996,0 0,-18.5516 -18.5528,0 -18.5507,0 0,18.5516 0,18.5517 0,18.5517 18.5507,0 0,-18.5517 18.5528,0 0,18.5517 -18.5528,0 0,18.5516 -18.5507,0 0,18.5517 -18.5508,0 0,18.5516 37.1015,0 0,-18.5516 18.5528,0 0,-18.5517 37.1015,0 0,18.5517 -37.0996,0 0,18.5516 37.1015,0 18.5489,0 0,18.5517 18.5527,0 0,-18.5517 -18.5507,0 0,-18.5516 18.5507,0 0,18.5516 18.5488,0 0,18.5517 18.5527,0 0,18.5515 18.5489,0 0,18.5518 -55.6484,0 0,-18.5518 -18.5527,0 0,74.2067 18.5527,0 0,-18.5516 18.5488,0 0,18.5516 18.5527,0 0,-18.5516 -18.5507,0 0,-18.5516 18.5507,0 0,18.5516 18.5489,0 0,18.5516 18.5528,0 0,37.1053 18.5507,0 18.5508,0 0,-55.6569 -18.5508,0 0,0 -18.5487,0 -18.5509,0 0,-18.5516 18.5509,0 0,-18.5517 18.5487,0 0,18.5517 18.5528,0 0,18.5516 37.1015,0 0,18.5516 18.5509,0 0,-18.5516 18.5507,0 0,-37.1033 18.5489,0 0,18.5517 55.6542,0 0,18.5516 -55.6503,0 0,0 -18.5489,0 0,18.5516 18.5489,0 0,18.5536 -37.1016,0 0,18.5517 37.1035,0 0,-18.5517 18.5507,0 18.5509,0 0,-18.5536 18.5508,0 0,18.5536 18.5488,0 0,18.5517 18.5527,0 0,-18.5517 18.5507,0 0,-18.5536 18.5509,0 0,18.5536 18.5507,0 0,-37.1052 -18.5507,0 0,-37.1033 -18.5528,0 0,18.5517 -18.5488,0 0,18.5516 -18.5508,0 0,-18.5516 18.5508,0 0,-18.5517 0,-18.5518 37.1016,0 0,-18.5515 37.1015,0 0,-18.5517 0,-18.5516 -18.5508,0 0,-18.5517 z m -185.5079,148.4132 -18.5527,0 0,18.5536 18.5527,0 z m -185.5078,-222.6198 0,-18.5516 -18.5527,0 0,18.5516 z m 0,-18.5516 18.5509,0 0,-18.5517 18.5507,0 0,-18.5517 -18.5527,0 0,18.5517 -18.5489,0 z m 185.5078,55.6549 18.5509,0 0,-18.5517 -18.5509,0 z m -259.7128,-111.31 -18.5508,0 0,18.5517 18.5508,0 z m 0,18.5517 0,37.1034 18.5507,0 0,-37.1034 z m -18.5508,-18.5517 0,-18.5515 -18.5508,0 0,-37.1034 -18.5508,0 0,74.2066 18.5508,0 0,-18.5517 z m 241.1621,-204.0682 0,18.5518 37.1015,0 0,-18.5518 z m 74.2031,0 0,18.5518 18.5489,0 0,37.1032 18.5526,0 0,-55.655 -18.5507,0 0,0 z m 55.6504,0 0,129.8616 129.8574,0 0,-129.8616 z m -389.5664,18.5518 92.7539,0 0,92.7583 -92.7539,0 z m 408.1191,0 92.7519,0 0,92.7583 -92.7519,0 z m -389.5683,18.5516 0,55.655 55.6543,0 0,-55.655 z m 222.6093,0 0,18.5516 18.5528,0 0,-18.5516 z m 185.5079,0 0,55.655 55.6543,0 0,-55.655 z m -148.4044,37.1032 18.5508,0 0,18.5518 -18.5508,0 z m -129.8554,18.5518 18.5488,0 0,37.1032 -18.5488,0 z m 111.3047,18.5517 18.5488,0 0,18.5515 -18.5488,0 0,18.5517 -18.5508,0 0,-18.5517 18.5508,0 z m 241.1581,55.6548 0,18.5518 18.5528,0 0,-18.5518 z m -259.7109,37.1033 0,18.5517 18.5528,0 0,-18.5517 z m 166.959,0 0,18.5517 18.5508,0 0,-18.5517 z m -408.1191,37.1034 0,18.5517 18.5508,0 0,-18.5517 z m 0,18.5517 -18.5508,0 0,37.1032 37.1016,0 0,-18.5516 -18.5508,0 z m 500.871,-18.5517 0,18.5517 18.5528,0 0,-18.5517 z m -259.7089,37.1033 18.5508,0 0,18.5516 -18.5508,0 z M 5030,1367.2325 l 0,74.2066 18.5508,0 0,-74.2066 z m 111.3067,0 18.5507,0 0,18.5517 -18.5507,0 z m 408.1151,0 0,18.5517 18.5528,0 0,-18.5517 z m -259.7109,37.1033 0,18.5517 18.5528,0 0,-18.5517 z m -55.6504,18.5517 18.5489,0 0,18.5516 -18.5489,0 z m 185.5078,18.5516 55.6505,0 0,55.655 -55.6485,0 z M 5030,1459.9908 l 0,129.8635 129.8574,0 0,-129.8635 z m 408.1172,0 0,18.5515 18.5527,0 0,-18.5515 z m -389.5664,18.5515 92.7539,0 0,92.7603 -92.7539,0 z m 241.1621,0 18.5508,0 0,18.5518 -18.5508,0 z m -222.6113,18.5518 0,55.6549 55.6543,0 0,-55.6549 z m 482.3202,0 0,18.5517 18.5528,0 0,-18.5517 z m -371.0155,74.2085 0,18.5517 18.5527,0 0,-18.5517 z"
           id="qr-code"
           inkscape:connector-curvature="0"
           sodipodi:nodetypes="cccccccccccccccccccccccccccccccccccccccccccccccccccccccccccccccccccccccccccccccccccccccccccccccccccccccccccccccccccccccccccccccccccccccccccccccccccccccccccccccccccccccccccccccccccccccccccccccccccccccccccccccccccccccccccccccccccccccccccccccccccccccccccccccccccccccccccccccccccccccccccccccccccccccccccccccccccccccccccccccccccccccccccccccccccccccccccccccccccccccccccccccccccccccccccccccccccccccccccccccccccccccccccccccccccccccccccccccccccccccccccccccccccccccccccccccccccccccccccccccccccccccccccccccccccccccccccccccccccccccccccccccccccccccccccccccccccccccccccccccccccccccccccccccccccccccccccccccccccccccccccccccccccccccccccccccccccccccccccccccccc">
          <desc
             id="desc6918">Generated by https://app.qr-code-generator.com/en/manage</desc>
          <title
             id="title6916">QR code for https://Avi.Alkalay.net/card/</title>
        </path>
      </g>
      <g
         transform="translate(-3.2172852,-62.813965)"
         id="qr-code-label">
        <rect
           style="opacity:1;fill:#ffffff;fill-opacity:1;stroke:none;stroke-width:0.1;stroke-linecap:round;stroke-linejoin:round;stroke-miterlimit:4;stroke-dasharray:none;stroke-opacity:1"
           id="rect4238"
           width="532"
           height="35"
           x="3957.7173"
           y="1393.7095" />
        <text
           xml:space="preserve"
           style="font-style:normal;font-variant:normal;font-weight:normal;font-stretch:normal;font-size:40px;line-height:125%;font-family:Arial;-inkscape-font-specification:Arial;letter-spacing:0px;word-spacing:0px;fill:#000000;fill-opacity:1;stroke:none;stroke-width:1px;stroke-linecap:butt;stroke-linejoin:miter;stroke-opacity:1"
           x="3955.1145"
           y="1428.0095"
           id="text4234"
           sodipodi:linespacing="125%"><tspan
             sodipodi:role="line"
             id="tspan4236"
             x="3955.1145"
             y="1428.0095"
             style="font-style:normal;font-variant:normal;font-weight:normal;font-stretch:normal;font-family:'Helvetica Neue';-inkscape-font-specification:'Helvetica Neue'">iPhone Wallet/Passbook Scan</tspan></text>
      </g>
    </g>
  </g>
  <g
     inkscape:label="Regular graphics"
     inkscape:groupmode="layer"
     id="layer1"
     style="display:inline">
    <path
       style="fill:#cecece;fill-opacity:1;stroke:none"
       d="m 425.31866,77.218912 0,34.843748 c 0,-19.292598 15.5199,-34.843748 34.8125,-34.843748 l -34.8125,0 z m 265.1875,0 c 19.2926,0 34.8125,15.55115 34.8125,34.843748 l 0,-34.843748 -34.8125,0 z m -265.1875,265.187498 0,34.8125 34.8125,0 c -19.2926,0 -34.8125,-15.5199 -34.8125,-34.8125 z m 300,0 c 0,19.2926 -15.5199,34.8125 -34.8125,34.8125 l 34.8125,0 0,-34.8125 z"
       id="icon-mask"
       inkscape:connector-curvature="0" />
    <path
       id="original-contact-glyph"
       style="opacity:0.28318583;fill:#000000;fill-opacity:1;fill-rule:nonzero;stroke:none"
       d="m 369.12354,370.69575 c -0.44752,-4.1857 -1.053,-8.7136 -2.13232,-13.531 -4.18567,-18.7697 -17.0849,-33.9592 -32.0638,-40.90906 -20.48082,-9.45066 -34.6963,-19.90166 -60.73168,-23.58716 -27.90446,-3.97507 -37.53939,-9.29271 -39.27684,-18.50644 -1.5795,-8.29237 -3.34327,-20.5598 -2.57985,-26.64086 3.55387,-3.3696 5.87047,-6.26534 7.66057,-10.00349 4.52789,-10.08246 2.89574,-18.63807 7.37098,-33.16945 0.60548,-1.94804 2.57985,-2.84309 3.52755,-3.18532 2.81677,-1.00034 3.44857,-3.26429 4.39627,-4.94909 2.13232,-3.81712 0.26325,-5.58089 3.65917,-14.95257 4.34361,-10.66161 5.00174,-21.63912 1.71112,-24.77179 -2.23762,-2.0007 -3.5802,-0.5265 -4.65952,-0.1053 -0.71077,0.26325 -0.15795,-1.55317 0.47385,-4.18567 2.6325,-10.71426 4.08037,-19.82269 4.79114,-30.85285 0.55283,-8.87151 -0.0263,-17.03225 -1.13197,-22.086638 -1.053,-10.81956 -5.21234,-12.71496 -8.31869,-19.55945 -5.29131,-11.74093 -21.13894,-13.55735 -26.56188,-15.90027 -12.95188,-5.44927 -29.11541,-12.79393 -48.3063,-4.50157 -8.55561,3.71182 -19.87534,4.05404 -32.24808,18.00627 -2.94839,3.31695 -10.1351,0.47385 -16.00557,13.26778 -5.89679,12.504358 -5.42294,20.770388 -4.05404,29.720878 l -0.0263,0 c 0,0 0.97402,21.42852 3.5802,32.14277 0.65812,2.65883 1.21094,4.44892 0.50017,4.18567 -1.10565,-0.4212 -2.60617,-1.68479 -4.81747,0.3159 -3.31694,3.13267 -1.55317,13.66266 2.76412,24.32427 3.42225,9.37168 1.13198,12.16213 4.76482,17.11122 1.28992,1.76377 2.50087,2.68514 3.89609,3.26429 0.92138,0.36855 2.23763,0.47385 2.8431,2.4219 4.00139,14.58403 3.05369,24.29794 7.21304,32.95885 1.7901,3.73814 4.18567,6.87081 7.92381,10.50366 0.60548,5.10704 -2.52719,21.79706 -3.42224,26.64086 -1.42155,7.58158 -7.63424,12.84658 -34.66997,16.61104 -29.404979,4.13302 -44.067989,16.61105 -64.548799,26.08802 -14.97891,6.9235 -28.06241,21.5339 -32.24808,40.3036 -1.07932,4.8174 -1.6848,9.3453 -2.106,13.531 l 352.833429,0 z"
       inkscape:connector-curvature="0">
      <desc
         id="desc4203">Original Contact drawing from Apple Address Book app</desc>
    </path>
    <g
       id="contact"
       transform="translate(-0.02022699,82)" />
    <g
       id="add-to-passbook-badge"
       transform="matrix(2.2111459,0,0,2.2111459,198.70973,441.24847)"
       inkscape:export-filename="/Users/aviram/src/digital-business-card/resources/img/add-to-passbook-badge.png"
       inkscape:export-xdpi="32.560001"
       inkscape:export-ydpi="32.560001">
      <path
         id="path4051"
         d="M 230.57,80 9.433,80 C 4.231,80 0,75.763 0,70.56 L 0,9.441 C 0,4.236 4.231,0 9.433,0 L 230.57,0 c 5.196,0 9.43,4.236 9.43,9.441 l 0,61.119 c 0,5.203 -4.233,9.44 -9.43,9.44 l 0,0 z"
         inkscape:connector-curvature="0"
         style="fill:#777878" />
      <path
         id="path4053"
         d="m 238.218,70.56 c 0,4.229 -3.422,7.651 -7.651,7.651 l -221.131,0 c -4.223,0 -7.649,-3.422 -7.649,-7.651 l 0,-61.119 c 0,-4.224 3.426,-7.66 7.649,-7.66 l 221.131,0 c 4.229,0 7.651,3.436 7.651,7.66 l 0,61.119 z"
         inkscape:connector-curvature="0"
         style="fill:#ffffff" />
      <g
         id="passbook-icon">
        <g
           id="g4057">
          <defs
             id="defs4059">
            <path
               d="m 66.042,20.31 c -0.525,-1.333 -1.736,-3.211 -3.453,-4.533 -0.992,-0.764 -2.176,-1.494 -3.802,-1.976 -1.733,-0.514 -3.869,-0.688 -6.526,-0.688 l -24.3,0 c -2.657,0 -4.793,0.174 -6.526,0.688 -1.626,0.482 -2.811,1.212 -3.802,1.976 -1.717,1.322 -2.928,3.2 -3.453,4.533 -1.058,2.687 -1.068,5.734 -1.068,7.653 l 0,24.301 c 0,1.919 0.011,4.967 1.068,7.653 0.525,1.333 1.736,3.211 3.453,4.534 0.992,0.763 2.176,1.493 3.802,1.975 1.733,0.514 3.869,0.688 6.526,0.688 l 24.3,0 c 2.657,0 4.793,-0.174 6.526,-0.688 1.626,-0.482 2.81,-1.212 3.802,-1.975 1.717,-1.323 2.928,-3.2 3.453,-4.534 1.058,-2.687 1.068,-5.734 1.068,-7.653 l 0,-24.301 c 0,-1.919 -0.01,-4.966 -1.068,-7.653 z"
               id="base_1_"
               inkscape:connector-curvature="0" />
          </defs>
          <clipPath
             id="base_2_">
            <use
               id="use4063"
               overflow="visible"
               xlink:href="#base_1_"
               style="overflow:visible"
               x="0"
               y="0"
               width="1"
               height="1" />
          </clipPath>
          <linearGradient
             y2="67.1138"
             x2="40.110298"
             y1="13.1138"
             x1="40.110401"
             gradientUnits="userSpaceOnUse"
             id="Red_1_">
            <stop
               id="stop4066"
               style="stop-color:#FF5E41"
               offset="0.1574" />
            <stop
               id="stop4068"
               style="stop-color:#E6523C"
               offset="0.2835" />
            <stop
               id="stop4070"
               style="stop-color:#C25541"
               offset="0.7186" />
          </linearGradient>
          <path
             d="m 66.042,20.31 c -0.525,-1.333 -1.736,-3.211 -3.453,-4.533 -0.992,-0.764 -2.176,-1.494 -3.802,-1.976 -1.733,-0.514 -3.869,-0.688 -6.526,-0.688 l -24.3,0 c -2.657,0 -4.793,0.174 -6.526,0.688 -1.626,0.482 -2.811,1.212 -3.802,1.976 -1.717,1.322 -2.928,3.2 -3.453,4.533 -1.058,2.687 -1.068,5.734 -1.068,7.653 l 0,24.301 c 0,1.919 0.011,4.967 1.068,7.653 0.525,1.333 1.736,3.211 3.453,4.534 0.992,0.763 2.176,1.493 3.802,1.975 1.733,0.514 3.869,0.688 6.526,0.688 l 24.3,0 c 2.657,0 4.793,-0.174 6.526,-0.688 1.626,-0.482 2.81,-1.212 3.802,-1.975 1.717,-1.323 2.928,-3.2 3.453,-4.534 1.058,-2.687 1.068,-5.734 1.068,-7.653 l 0,-24.301 c 0,-1.919 -0.01,-4.966 -1.068,-7.653 z"
             clip-path="url(#base_2_)"
             id="Red"
             inkscape:connector-curvature="0"
             style="fill:url(#linearGradient4195)" />
          <linearGradient
             y2="49.451698"
             x2="40.110401"
             y1="26.6138"
             x1="40.110401"
             gradientUnits="userSpaceOnUse"
             id="Blue_1_">
            <stop
               id="stop4074"
               style="stop-color:#51ace0;stop-opacity:1;"
               offset="0" />
            <stop
               id="stop4076"
               style="stop-color:#4BA1D3"
               offset="0.27" />
            <stop
               id="stop4078"
               style="stop-color:#4BA1D3"
               offset="0.5173" />
            <stop
               id="stop4080"
               style="stop-color:#4A9ECD"
               offset="1" />
          </linearGradient>
          <path
             d="m 13.11,26.614 c 0,0 25.211,0 41.175,0 0.788,0 0.338,2.138 2.7,2.138 2.25,0 1.913,-2.138 2.587,-2.138 4.622,0 7.538,0 7.538,0 l 0,22.838 -54,0 0,-22.838 z"
             clip-path="url(#base_2_)"
             id="Blue"
             inkscape:connector-curvature="0"
             style="fill:url(#linearGradient4197)" />
          <linearGradient
             y2="60.4907"
             x2="40.1665"
             y1="40.1143"
             x1="40.1665"
             gradientUnits="userSpaceOnUse"
             id="Green_1_">
            <stop
               id="stop4084"
               style="stop-color:#43D000"
               offset="0.0935" />
            <stop
               id="stop4086"
               style="stop-color:#3DC700"
               offset="0.5214" />
            <stop
               id="stop4088"
               style="stop-color:#3DC600"
               offset="0.53" />
            <stop
               id="stop4090"
               style="stop-color:#38B700"
               offset="0.7478" />
          </linearGradient>
          <path
             d="m 45,42.025 c -0.899,2.213 -2.81,3.373 -4.946,3.373 -2.361,0 -4.139,-1.338 -4.947,-3.373 -0.401,-1.012 -0.337,-1.911 -1.967,-1.911 -0.761,0 -20.068,0 -20.068,0 l 0,12.31 c 0,1.918 0.011,4.964 1.067,7.648 0.053,0.134 0.114,0.274 0.18,0.418 l 51.468,0 c 0.066,-0.144 0.127,-0.284 0.18,-0.418 1.057,-2.684 1.292,-5.73 1.292,-7.648 l 0,-12.31 c 0,0 -19.532,0 -20.292,0 -1.629,0 -1.666,1.173 -1.967,1.911 z"
             clip-path="url(#base_2_)"
             id="Green"
             inkscape:connector-curvature="0"
             style="fill:url(#linearGradient4199)" />
          <g
             clip-path="url(#base_2_)"
             id="Orange">
            <path
               id="path4094"
               d="m 66.436,53.614 c -0.004,0 -0.005,0.84 -0.872,0.844 -0.815,0.003 -0.927,-0.844 -0.928,-0.844 -10e-4,0 -0.675,0 -0.675,0 0,0.498 -0.403,0.846 -0.9,0.846 -0.497,0 -0.9,-0.348 -0.9,-0.846 l -0.787,0 c 0,0.498 -0.403,0.846 -0.9,0.846 -0.497,0 -0.9,-0.348 -0.9,-0.846 l -0.731,0 c 0,0.498 -0.403,0.846 -0.9,0.846 -0.497,0 -0.9,-0.348 -0.9,-0.846 l -0.731,0 c 0,0.498 -0.403,0.846 -0.9,0.846 -0.497,0 -0.9,-0.348 -0.9,-0.846 l -0.759,0 c 0,0.498 -0.403,0.846 -0.9,0.846 -0.497,0 -0.9,-0.348 -0.9,-0.846 l -0.703,0 c 0,0.498 -0.403,0.846 -0.9,0.846 -0.497,0 -0.9,-0.348 -0.9,-0.846 l -0.79,0 c 0,0.498 -0.403,0.846 -0.9,0.846 -0.497,0 -0.9,-0.348 -0.9,-0.846 l -0.731,0 c 0,0.498 -0.403,0.846 -0.9,0.846 -0.497,0 -0.9,-0.348 -0.9,-0.846 l -0.731,0 c 0,0.498 -0.403,0.846 -0.9,0.846 -0.497,0 -0.9,-0.348 -0.9,-0.846 l -0.759,0 c 0,0.498 -0.403,0.846 -0.9,0.846 -0.497,0 -0.9,-0.348 -0.9,-0.846 l -0.731,0 c 0,0.498 -0.403,0.846 -0.9,0.846 -0.497,0 -0.9,-0.348 -0.9,-0.846 l -0.759,0 c 0,0.498 -0.403,0.846 -0.9,0.846 -0.497,0 -0.9,-0.348 -0.9,-0.846 l -0.759,0 c 0,0.498 -0.403,0.846 -0.9,0.846 -0.497,0 -0.9,-0.348 -0.9,-0.846 l -0.703,0 c 0,0.498 -0.403,0.846 -0.9,0.846 -0.497,0 -0.9,-0.348 -0.9,-0.846 l -0.788,0 c 0,0.498 -0.403,0.846 -0.9,0.846 -0.497,0 -0.9,-0.348 -0.9,-0.846 l -0.675,0 c 0,0.498 -0.431,0.846 -0.928,0.846 -0.497,0 -0.872,-0.348 -0.872,-0.846 l -0.788,0 c 0,0.498 -0.403,0.846 -0.9,0.846 -0.497,0 -0.9,-0.348 -0.9,-0.846 l -0.76,0 c 0,0.498 -0.403,0.846 -0.9,0.846 -0.497,0 -0.9,-0.348 -0.9,-0.846 l -0.731,0 c 0,0.498 -0.403,0.846 -0.9,0.846 -0.497,0 -0.9,-0.348 -0.9,-0.846 l -0.759,0 c 0,0.498 -0.403,0.846 -0.9,0.846 -0.497,0 -0.9,-0.348 -0.9,-0.846 l -0.663,0 c 0.04,1.839 0.222,4.183 1.057,6.304 0.525,1.333 1.736,3.211 3.453,4.534 0.992,0.763 2.176,1.493 3.802,1.975 1.733,0.514 3.869,0.688 6.526,0.688 l 24.3,0 c 2.657,0 4.793,-0.174 6.526,-0.688 1.626,-0.482 2.81,-1.212 3.802,-1.975 1.717,-1.323 2.928,-3.2 3.453,-4.534 0.835,-2.121 1.017,-4.465 1.057,-6.304 l -0.663,0 z"
               inkscape:connector-curvature="0"
               style="fill:#ffa100" />
          </g>
        </g>
        <path
           d="m 25.908,62.726 -4.432,0 c -0.146,0 -0.265,-0.1 -0.265,-0.225 0,-0.103 0.111,-0.226 0.257,-0.226 l 4.428,0 c 0.146,0 0.264,0.113 0.264,0.226 0,0.124 -0.106,0.225 -0.252,0.225 z m 1.185,-4.725 c 0.055,0.155 0.108,0.416 0.108,0.623 0,1.487 -1.001,2.789 -2.318,3.202 l -2.476,0 c -0.817,-0.305 -1.453,-0.881 -1.848,-1.644 -0.168,0.092 -0.406,0.156 -0.612,0.156 -0.651,0 -1.1,-0.55 -1.1,-1.195 0,-0.643 0.536,-1.141 1.185,-1.143 l 0.909,0 6.152,0 z m -6.67,1.688 c -0.116,-0.345 -0.232,-0.681 -0.232,-1.064 0,-0.028 0.006,-0.146 0.007,-0.173 l -0.225,0 c -0.45,0.112 -0.598,0.389 -0.598,0.744 0,0.355 0.213,0.619 0.572,0.619 0.134,0 0.373,-0.058 0.476,-0.126 z"
           id="Cup_2_"
           inkscape:connector-curvature="0"
           style="fill:#ffffff" />
        <path
           d="m 24.918,50.914 -4.72,0 0.001,-3.487 4.719,0 0,3.487 z m 2.592,-4.275 -2.025,1.574 0,1.575 2.025,1.575 0,-4.724 z m -5.287,-1.463 c 0,0.933 -0.756,1.688 -1.688,1.688 -0.932,0 -1.688,-0.755 -1.688,-1.688 0,-0.932 0.755,-1.687 1.688,-1.687 0.932,0 1.688,0.755 1.688,1.687 z m -0.9,0 c 0,-0.434 -0.353,-0.787 -0.788,-0.787 -0.435,0 -0.788,0.353 -0.788,0.787 0,0.435 0.353,0.788 0.788,0.788 0.435,0 0.788,-0.353 0.788,-0.788 z m 4.837,0 c 0,0.933 -0.756,1.688 -1.688,1.688 -0.932,0 -1.688,-0.755 -1.688,-1.688 0,-0.932 0.755,-1.687 1.688,-1.687 0.932,0 1.688,0.755 1.688,1.687 z m -0.9,0 c 0,-0.434 -0.353,-0.787 -0.788,-0.787 -0.435,0 -0.788,0.353 -0.788,0.787 0,0.435 0.353,0.788 0.788,0.788 0.435,0 0.788,-0.353 0.788,-0.788 z"
           id="Movie_ticket_1_"
           inkscape:connector-curvature="0"
           style="fill:#ffffff" />
        <path
           d="m 24.473,33.926 -2.175,2.813 -0.626,0 1.227,-2.813 -1.8,0 -0.675,1.013 -0.337,0 0,-3.263 0.337,0 0.675,1.013 1.8,0 -1.229,-2.812 0.627,0 2.177,2.812 2.531,0 c 0.346,0 0.619,0.275 0.619,0.62 0,0.344 -0.273,0.617 -0.619,0.617 l -2.532,0 z"
           id="Airline_ticket_1_"
           inkscape:connector-curvature="0"
           style="fill:#ffffff" />
        <g
           id="Credit_Card_1_">
          <path
             id="path4100"
             d="m 26.61,18.289 -5.962,0 c -0.497,0 -0.9,0.403 -0.9,0.9 l 0,0.112 7.762,0 0,-0.112 c 0,-0.497 -0.403,-0.9 -0.9,-0.9 z"
             inkscape:connector-curvature="0"
             style="clip-rule:evenodd;fill:#ffffff;fill-rule:evenodd" />
          <path
             id="path4102"
             d="m 19.748,22.452 0.011,0 c 0.056,0.443 0.43,0.787 0.889,0.787 l 5.962,0 c 0.458,0 0.833,-0.344 0.889,-0.787 l 0.011,0 0,-2.138 -7.762,0 0,2.138 z"
             inkscape:connector-curvature="0"
             style="clip-rule:evenodd;fill:#ffffff;fill-rule:evenodd" />
        </g>
      </g>
      <g
         id="g4104">
        <path
           id="path4106"
           d="m 95.224,46.19 c 0,2.435 -0.718,4.386 -2.153,5.853 -1.854,1.912 -4.556,2.867 -8.106,2.867 -1.044,0 -1.854,-0.065 -2.428,-0.196 l 0,10.252 -4.242,0 0,-26.121 c 2.016,-0.367 4.321,-0.55 6.913,-0.55 3.352,0 5.878,0.721 7.581,2.161 1.623,1.413 2.435,3.325 2.435,5.734 z m -4.203,0.196 c 0,-1.545 -0.496,-2.73 -1.486,-3.555 -0.991,-0.825 -2.372,-1.237 -4.145,-1.237 -1.173,0 -2.125,0.079 -2.854,0.235 l 0,9.506 c 0.599,0.157 1.42,0.236 2.463,0.236 1.877,0 3.349,-0.458 4.418,-1.375 1.07,-0.916 1.604,-2.186 1.604,-3.81 z"
           inkscape:connector-curvature="0"
           style="fill:#1d1c1b" />
        <path
           id="path4108"
           d="m 111.564,64.965 -3.81,0 -0.314,-2.2 -0.118,0 c -1.31,1.755 -3.168,2.632 -5.578,2.632 -1.807,0 -3.26,-0.576 -4.36,-1.729 -0.996,-1.047 -1.493,-2.343 -1.493,-3.889 0,-2.33 0.975,-4.111 2.926,-5.342 1.951,-1.23 4.694,-1.833 8.229,-1.807 l 0,-0.354 c 0,-2.514 -1.322,-3.771 -3.967,-3.771 -1.885,0 -3.548,0.471 -4.988,1.414 L 97.227,47.13 c 1.781,-1.1 3.967,-1.649 6.56,-1.649 5.001,0 7.502,2.632 7.502,7.895 l 0,7.031 c 0,1.914 0.091,3.433 0.275,4.558 z m -4.399,-6.559 0,-2.946 c -4.688,-0.079 -7.031,1.205 -7.031,3.849 0,0.996 0.273,1.742 0.82,2.239 0.547,0.498 1.237,0.747 2.071,0.747 0.938,0 1.803,-0.295 2.598,-0.884 0.794,-0.589 1.282,-1.342 1.465,-2.259 0.05,-0.209 0.077,-0.458 0.077,-0.746 z"
           inkscape:connector-curvature="0"
           style="fill:#1d1c1b" />
        <path
           id="path4110"
           d="m 127.865,59.466 c 0,1.781 -0.656,3.208 -1.965,4.281 -1.309,1.074 -3.115,1.61 -5.42,1.61 -2.174,0 -4.02,-0.432 -5.539,-1.296 l 0.903,-3.143 c 1.466,0.891 3.024,1.335 4.674,1.335 2.174,0 3.26,-0.798 3.26,-2.396 0,-0.707 -0.234,-1.29 -0.707,-1.748 -0.471,-0.458 -1.309,-0.91 -2.514,-1.355 -3.404,-1.257 -5.106,-3.089 -5.106,-5.499 0,-1.65 0.628,-3.024 1.885,-4.125 1.257,-1.1 2.919,-1.649 4.988,-1.649 1.885,0 3.496,0.38 4.832,1.139 l -0.904,3.024 c -1.23,-0.733 -2.527,-1.1 -3.889,-1.1 -0.891,0 -1.584,0.21 -2.082,0.628 -0.498,0.419 -0.746,0.957 -0.746,1.611 0,0.655 0.261,1.192 0.786,1.61 0.445,0.393 1.31,0.825 2.593,1.296 3.301,1.26 4.951,3.185 4.951,5.777 z"
           inkscape:connector-curvature="0"
           style="fill:#1d1c1b" />
        <path
           id="path4112"
           d="m 143.458,59.466 c 0,1.781 -0.655,3.208 -1.964,4.281 -1.31,1.074 -3.116,1.61 -5.421,1.61 -2.174,0 -4.02,-0.432 -5.538,-1.296 l 0.903,-3.143 c 1.467,0.891 3.024,1.335 4.675,1.335 2.173,0 3.26,-0.798 3.26,-2.396 0,-0.707 -0.235,-1.29 -0.707,-1.748 -0.472,-0.458 -1.31,-0.91 -2.514,-1.355 -3.404,-1.257 -5.106,-3.089 -5.106,-5.499 0,-1.65 0.628,-3.024 1.886,-4.125 1.257,-1.1 2.919,-1.649 4.988,-1.649 1.885,0 3.495,0.38 4.831,1.139 l -0.903,3.024 c -1.231,-0.733 -2.527,-1.1 -3.889,-1.1 -0.891,0 -1.585,0.21 -2.082,0.628 -0.498,0.419 -0.746,0.957 -0.746,1.611 0,0.655 0.262,1.192 0.785,1.61 0.445,0.393 1.31,0.825 2.593,1.296 3.3,1.26 4.949,3.185 4.949,5.777 z"
           inkscape:connector-curvature="0"
           style="fill:#1d1c1b" />
        <path
           id="path4114"
           d="m 165.219,55.146 c 0,3.221 -0.891,5.788 -2.671,7.699 -1.571,1.703 -3.496,2.553 -5.774,2.553 -2.724,0 -4.727,-1.125 -6.01,-3.378 l -0.078,0 -0.235,2.946 -3.614,0 c 0.104,-1.545 0.157,-3.26 0.157,-5.146 l 0,-22.704 4.242,0 0,11.548 c 1.264,-2.121 3.305,-3.182 6.123,-3.182 2.317,0 4.206,0.884 5.668,2.651 1.462,1.767 2.192,4.106 2.192,7.013 z m -4.321,0.157 c 0,-1.859 -0.42,-3.378 -1.257,-4.557 -0.917,-1.283 -2.161,-1.925 -3.732,-1.925 -1.047,0 -1.99,0.341 -2.827,1.021 -0.839,0.681 -1.401,1.584 -1.689,2.71 -0.105,0.445 -0.157,0.89 -0.157,1.335 l 0,3.339 c 0,1.31 0.438,2.435 1.316,3.378 0.877,0.942 1.97,1.414 3.279,1.414 1.597,0 2.841,-0.602 3.731,-1.807 0.89,-1.203 1.336,-2.839 1.336,-4.908 z"
           inkscape:connector-curvature="0"
           style="fill:#1d1c1b" />
        <path
           id="path4116"
           d="m 186.312,55.263 c 0,2.933 -0.839,5.342 -2.515,7.228 -1.754,1.938 -4.085,2.907 -6.991,2.907 -2.803,0 -5.034,-0.929 -6.697,-2.789 -1.663,-1.859 -2.494,-4.203 -2.494,-7.031 0,-2.959 0.857,-5.381 2.573,-7.267 1.714,-1.886 4.025,-2.828 6.933,-2.828 2.802,0 5.054,0.93 6.756,2.789 1.623,1.807 2.435,4.138 2.435,6.991 z m -4.399,0.098 c 0,-1.749 -0.38,-3.25 -1.14,-4.504 -0.891,-1.514 -2.16,-2.271 -3.81,-2.271 -1.703,0 -2.999,0.757 -3.889,2.271 -0.76,1.254 -1.14,2.781 -1.14,4.583 0,1.75 0.38,3.251 1.14,4.504 0.916,1.515 2.199,2.271 3.85,2.271 1.623,0 2.893,-0.771 3.81,-2.311 0.787,-1.278 1.179,-2.793 1.179,-4.543 z"
           inkscape:connector-curvature="0"
           style="fill:#1d1c1b" />
        <path
           id="path4118"
           d="m 207.483,55.263 c 0,2.933 -0.839,5.342 -2.515,7.228 -1.754,1.938 -4.085,2.907 -6.991,2.907 -2.803,0 -5.034,-0.929 -6.697,-2.789 -1.663,-1.859 -2.494,-4.203 -2.494,-7.031 0,-2.959 0.857,-5.381 2.573,-7.267 1.714,-1.886 4.025,-2.828 6.933,-2.828 2.802,0 5.054,0.93 6.756,2.789 1.623,1.807 2.435,4.138 2.435,6.991 z m -4.399,0.098 c 0,-1.749 -0.38,-3.25 -1.14,-4.504 -0.891,-1.514 -2.16,-2.271 -3.81,-2.271 -1.703,0 -2.999,0.757 -3.889,2.271 -0.76,1.254 -1.14,2.781 -1.14,4.583 0,1.75 0.38,3.251 1.14,4.504 0.916,1.515 2.199,2.271 3.85,2.271 1.623,0 2.893,-0.771 3.81,-2.311 0.786,-1.278 1.179,-2.793 1.179,-4.543 z"
           inkscape:connector-curvature="0"
           style="fill:#1d1c1b" />
        <path
           id="path4120"
           d="m 227.672,64.965 -5.185,0 -5.774,-8.72 -1.61,1.964 0,6.756 -4.242,0 0,-27.849 4.242,0 0,17.283 0.079,0 c 0.523,-0.838 1.033,-1.571 1.531,-2.2 l 4.91,-6.324 5.067,0 -7.031,7.856 8.013,11.234 z"
           inkscape:connector-curvature="0"
           style="fill:#1d1c1b" />
      </g>
      <g
         id="g4122">
        <path
           id="path4124"
           d="m 89.924,31.117 -2.663,0 -1.459,-4.585 -5.072,0 -1.389,4.585 -2.594,0 5.025,-15.607 3.103,0 5.049,15.607 z M 85.362,24.61 84.042,20.534 C 83.903,20.117 83.64,19.137 83.254,17.593 l -0.046,0 c -0.155,0.664 -0.402,1.645 -0.741,2.941 l -1.297,4.076 4.192,0 z"
           inkscape:connector-curvature="0"
           style="fill:#777878" />
        <path
           id="path4126"
           d="m 101.664,31.117 -2.224,0 -0.116,-1.806 -0.069,0 c -0.71,1.374 -1.915,2.061 -3.612,2.061 -1.359,0 -2.486,-0.533 -3.381,-1.598 -0.896,-1.065 -1.343,-2.446 -1.343,-4.145 0,-1.822 0.486,-3.296 1.459,-4.423 0.941,-1.05 2.099,-1.575 3.474,-1.575 1.513,0 2.57,0.509 3.172,1.528 l 0.046,0 0,-6.461 2.501,0 0,13.384 c 0,1.098 0.031,2.109 0.093,3.035 z m -2.594,-4.747 0,-1.875 c 0,-0.324 -0.023,-0.586 -0.069,-0.788 -0.139,-0.602 -0.44,-1.107 -0.903,-1.517 -0.463,-0.409 -1.019,-0.614 -1.667,-0.614 -0.926,0 -1.656,0.371 -2.188,1.112 -0.533,0.741 -0.799,1.69 -0.799,2.848 0,1.111 0.255,2.015 0.764,2.709 0.541,0.741 1.266,1.112 2.177,1.112 0.818,0 1.474,-0.309 1.968,-0.926 0.478,-0.571 0.717,-1.258 0.717,-2.061 z"
           inkscape:connector-curvature="0"
           style="fill:#777878" />
        <path
           id="path4128"
           d="m 114.608,31.117 -2.223,0 -0.116,-1.806 -0.069,0 c -0.71,1.374 -1.915,2.061 -3.612,2.061 -1.359,0 -2.486,-0.533 -3.381,-1.598 -0.896,-1.065 -1.343,-2.446 -1.343,-4.145 0,-1.822 0.486,-3.296 1.459,-4.423 0.941,-1.05 2.099,-1.575 3.474,-1.575 1.513,0 2.57,0.509 3.172,1.528 l 0.046,0 0,-6.461 2.501,0 0,13.384 c -0.001,1.098 0.03,2.109 0.092,3.035 z m -2.594,-4.747 0,-1.875 c 0,-0.324 -0.023,-0.586 -0.069,-0.788 -0.139,-0.602 -0.44,-1.107 -0.903,-1.517 -0.463,-0.409 -1.019,-0.614 -1.667,-0.614 -0.926,0 -1.656,0.371 -2.188,1.112 -0.533,0.741 -0.799,1.69 -0.799,2.848 0,1.111 0.255,2.015 0.764,2.709 0.541,0.741 1.266,1.112 2.177,1.112 0.818,0 1.474,-0.309 1.968,-0.926 0.478,-0.571 0.717,-1.258 0.717,-2.061 z"
           inkscape:connector-curvature="0"
           style="fill:#777878" />
        <path
           id="path4130"
           d="m 128.571,21.739 -2.756,0 0,5.465 c 0,1.39 0.486,2.084 1.459,2.084 0.447,0 0.818,-0.039 1.111,-0.116 l 0.069,1.899 c -0.494,0.186 -1.143,0.278 -1.945,0.278 -0.987,0 -1.76,-0.301 -2.315,-0.903 -0.555,-0.602 -0.833,-1.613 -0.833,-3.034 l 0,-5.673 -1.645,0 0,-1.875 1.645,0 0,-2.061 2.454,-0.741 0,2.802 2.756,0 0,1.875 z"
           inkscape:connector-curvature="0"
           style="fill:#777878" />
        <path
           id="path4132"
           d="m 140.773,25.397 c 0,1.729 -0.495,3.149 -1.482,4.261 -1.034,1.143 -2.408,1.714 -4.122,1.714 -1.651,0 -2.968,-0.548 -3.948,-1.644 -0.98,-1.096 -1.47,-2.478 -1.47,-4.145 0,-1.745 0.505,-3.172 1.517,-4.284 1.011,-1.111 2.373,-1.667 4.087,-1.667 1.651,0 2.979,0.548 3.982,1.644 0.957,1.065 1.436,2.439 1.436,4.121 z m -2.593,0.07 c 0,-1.034 -0.225,-1.922 -0.672,-2.663 -0.524,-0.895 -1.273,-1.343 -2.246,-1.343 -1.004,0 -1.768,0.448 -2.292,1.343 -0.448,0.741 -0.672,1.644 -0.672,2.709 0,1.035 0.224,1.922 0.672,2.663 0.54,0.896 1.296,1.343 2.269,1.343 0.957,0 1.706,-0.455 2.246,-1.366 0.463,-0.756 0.695,-1.652 0.695,-2.686 z"
           inkscape:connector-curvature="0"
           style="fill:#777878" />
      </g>
    </g>
    <path
       style="fill:#2aa9e0"
       inkscape:connector-curvature="0"
       id="path5"
       d="m 133.553,858.66612 c -3.62162,1.60655 -7.51445,2.69185 -11.59927,3.18014 4.16948,-2.49943 7.37222,-6.45722 8.87982,-11.17349 -3.90264,2.31482 -8.22469,3.99519 -12.82529,4.90085 -3.68367,-3.92531 -8.93246,-6.37746 -14.74145,-6.37746 -11.153293,0 -20.196483,9.04223 -20.196483,20.19555 0,1.58291 0.17863,3.1245 0.52319,4.60255 -16.785047,-0.84214 -31.66632,-8.88276 -41.627464,-21.10166 -1.738461,2.98274 -2.734656,6.45177 -2.734656,10.15316 0,7.00694 3.565488,13.1885 8.984636,16.81012 -3.310528,-0.10481 -6.424698,-1.01341 -9.147588,-2.52596 0,0.0842 0,0.16881 0,0.25399 0,9.78493 6.961711,17.94711 16.200848,19.8037 -1.694667,0.46171 -3.478875,0.70829 -5.32071,0.70829 -1.301379,0 -2.566367,-0.12696 -3.799786,-0.36224 2.570269,8.02334 10.028584,13.86235 18.866568,14.02479 -6.912004,5.41714 -15.620039,8.64599 -25.082626,8.64599 -1.630152,0 -3.23769,-0.096 -4.817619,-0.28251 8.937857,5.73066 19.553678,9.07426 30.958946,9.07426 37.147974,0 57.462574,-30.77393 57.462574,-57.46312 0,-0.8756 -0.0195,-1.74632 -0.0585,-2.61309 3.94547,-2.84686 7.36924,-6.40351 10.07686,-10.45386 z" />
    <path
       style="fill:#dc4a38"
       d="m 174.57594,849.19616 c -1.41092,0 -2.5519,1.14228 -2.5519,2.5519 l 0,74.87593 c 0,1.4122 1.14098,2.5722 2.5519,2.5722 l 76.71899,0 c 1.41091,0 2.55189,-1.1606 2.55189,-2.5722 l 0,-74.87593 c 0,-1.41027 -1.14163,-2.5519 -2.55189,-2.5519 l -76.71899,0 z m 33.88354,12.47595 14.09621,0 -4.65823,2.91646 -4.43545,0 c 1.64618,1.3623 5.08355,4.2423 5.08355,9.70126 0,5.3086 -3.008,7.82048 -6.01519,10.18734 -0.93327,0.93132 -2.00506,1.94204 -2.00506,3.52405 0,1.57554 1.07714,2.44675 1.86329,3.09874 l 2.57215,2.00506 c 3.15301,2.65592 6.03609,5.08695 6.03544,10.04557 0,6.74868 -6.53529,13.56962 -18.85569,13.56962 -10.38972,0 -15.39241,-4.95263 -15.39241,-10.26835 0,-2.58269 1.2813,-6.23539 5.50886,-8.74937 4.43885,-2.72851 10.46554,-3.09987 13.69114,-3.32152 -1.00715,-1.29167 -2.14683,-2.65738 -2.14683,-4.88101 0,-1.21908 0.35434,-1.93232 0.70886,-2.79494 -0.78939,0.0732 -1.57181,0.14177 -2.28861,0.14177 -7.59121,0 -11.88861,-5.66181 -11.88861,-11.26076 0,-3.29818 1.49744,-6.96303 4.57722,-9.62025 4.08627,-3.37337 9.67631,-4.29367 13.54936,-4.29367 z m -5.24557,2.71392 c -1.86847,0 -3.85344,0.93214 -5.00253,2.36962 -1.21908,1.50943 -1.57975,3.43462 -1.57975,5.30633 0,4.80762 2.78846,12.77975 8.9519,12.77975 1.79006,0 3.72869,-0.85533 4.88102,-2.00506 1.64747,-1.6572 1.78227,-3.95196 1.78227,-5.24557 0,-5.17056 -3.09111,-13.20507 -9.03291,-13.20507 z m 26.30886,13.16456 3.54431,0 0,7.18987 7.18987,0 0,3.58481 -7.18987,0 0,7.21013 -3.54431,0 0,-7.21013 -7.16962,0 0,-3.58481 7.16962,0 0,-7.18987 z m -22.78481,18.8557 c -0.6455,0 -4.52698,0.14274 -7.53417,1.15443 -1.57683,0.57097 -6.15697,2.29573 -6.15697,7.3924 0,5.09797 4.95328,8.74937 12.61773,8.74937 6.87894,0 10.53164,-3.31164 10.53164,-7.75696 0,-3.67085 -2.36913,-5.60089 -7.81772,-9.47848 -0.57033,-0.0719 -0.92435,-0.0608 -1.64051,-0.0608 z"
       id="path4126-8"
       inkscape:connector-curvature="0" />
    <path
       style="fill:#006699;fill-opacity:1;fill-rule:nonzero;stroke:none"
       d="m 307.66692,849.19616 c -3.24442,0 -5.86885,2.57366 -5.86885,5.7377 l 0,68.52463 c 0,3.1651 2.62443,5.7377 5.86885,5.7377 l 67.73771,0 c 3.24431,0 5.86885,-2.5726 5.86885,-5.7377 l 0,-68.52463 c 0,-3.16404 -2.62454,-5.7377 -5.86885,-5.7377 l -67.73771,0 z M 319.962,862.606 c 4.1076,0 6.64326,2.71771 6.72132,6.26229 0,3.46656 -2.63266,6.22951 -6.81968,6.22951 l -0.0656,0 c -4.02935,0 -6.62295,-2.76295 -6.62295,-6.22951 0,-3.54458 2.67972,-6.26229 6.78688,-6.26229 z m 35.37705,16.59016 c 7.89952,0 13.83607,5.16676 13.83607,16.2623 l 0,20.68852 -12,0 0,-19.31148 c 0,-4.85616 -1.75368,-8.16393 -6.09836,-8.16393 -3.3169,0 -5.29596,2.23634 -6.16394,4.39344 -0.31702,0.77177 -0.39344,1.83841 -0.39344,2.91804 l 0,20.16393 -12,0 c 0,0 0.15757,-32.70877 0,-36.09836 l 12,0 0,5.11475 c 1.59198,-2.46286 4.42521,-5.96721 10.81967,-5.96721 z m -41.47541,0.85246 12,0 0,36.09836 -12,0 0,-36.09836 z"
       id="path14"
       inkscape:connector-curvature="0" />
    <path
       style="fill:#3c5a99"
       d="m 434.54987,849.19601 c -2.43894,0 -4.41373,1.98448 -4.41373,4.42342 l 0,71.16286 c 0,2.4383 1.97448,4.4137 4.41373,4.4137 l 38.31697,0 0,-30.97366 -10.42804,0 0,-12.07712 10.42804,0 0,-8.90506 c 0,-10.33282 6.31269,-15.95732 15.5305,-15.95732 4.41535,0 8.20677,0.32818 9.31248,0.47532 l 0,10.79666 -6.39263,0.01 c -5.0126,0 -5.98521,2.37321 -5.98521,5.8688 l 0,7.7119 11.96071,0 -1.56178,12.07712 -10.39893,0 0,30.97368 20.39045,0 c 2.43801,0 4.41373,-1.9751 4.41373,-4.4137 l 0,-71.16287 c 0,-2.43894 -1.97541,-4.42343 -4.41373,-4.42343 l -71.17256,0 z"
       id="Blue_1_-8"
       inkscape:connector-curvature="0" />
    <g
       transform="matrix(2.2111459,0,0,2.2111459,198.70973,635.24847)"
       id="g3149"
       inkscape:export-filename="/Users/aviram/src/digital-business-card/resources/img/add-to-addressbook-badge.png"
       inkscape:export-xdpi="32.560001"
       inkscape:export-ydpi="32.560001">
      <path
         style="fill:#777878"
         inkscape:connector-curvature="0"
         d="M 230.57,80 9.433,80 C 4.231,80 0,75.763 0,70.56 L 0,9.441 C 0,4.236 4.231,0 9.433,0 L 230.57,0 c 5.196,0 9.43,4.236 9.43,9.441 l 0,61.119 c 0,5.203 -4.233,9.44 -9.43,9.44 l 0,0 z"
         id="path3151" />
      <path
         style="fill:#ffffff"
         inkscape:connector-curvature="0"
         d="m 238.218,70.56 c 0,4.229 -3.422,7.651 -7.651,7.651 l -221.131,0 c -4.223,0 -7.649,-3.422 -7.649,-7.651 l 0,-61.119 c 0,-4.224 3.426,-7.66 7.649,-7.66 l 221.131,0 c 4.229,0 7.651,3.436 7.651,7.66 l 0,61.119 z"
         id="path3153" />
      <text
         xml:space="preserve"
         style="font-style:normal;font-weight:normal;font-size:16.85668182px;line-height:125%;font-family:Sans;letter-spacing:0px;word-spacing:0px;fill:#000000;fill-opacity:1;stroke:none"
         x="76.298615"
         y="31.429941"
         id="text3072"
         sodipodi:linespacing="125%"><tspan
           sodipodi:role="line"
           id="tspan3074"
           x="76.298615"
           y="31.429941"
           style="font-style:normal;font-variant:normal;font-weight:normal;font-stretch:normal;font-size:22.61270905px;font-family:'Myriad Set';-inkscape-font-specification:'Myriad Set';fill:#777878;fill-opacity:1">Add to</tspan><tspan
           sodipodi:role="line"
           x="76.298615"
           y="63.183937"
           id="tspan3076"
           style="font-style:normal;font-variant:normal;font-weight:normal;font-stretch:normal;font-size:26.23074341px;font-family:'Myriad Set';-inkscape-font-specification:'Myriad Set'">Address Book</tspan></text>
      <g
         id="g3995"
         transform="matrix(1.0800192,0,0,1.0800192,-1059.835,-1102.6309)">
        <circle
           transform="matrix(1.0159676,0,0,1.0159676,0.90108423,-28.368153)"
           id="path3969"
           style="fill:#1e7aad;fill-opacity:1;stroke:none"
           cx="1001.5569"
           cy="1069.3707"
           r="24.607084" />
        <path
           id="path3993"
           d="m 1018.4375,1035.0625 c -12.7025,0 -23,10.2975 -23,23 0,6.8289 2.99275,12.9751 7.7187,17.1875 1.2008,-0.5138 2.5335,-0.9506 4.2188,-1.1875 3.9104,-0.5444 4.8256,-1.3097 5.0312,-2.4063 0.1295,-0.7005 0.588,-3.1049 0.5,-3.8437 -0.5405,-0.5255 -0.8973,-0.9905 -1.1562,-1.5313 -0.6016,-1.2527 -0.4524,-2.6404 -1.0312,-4.75 -0.087,-0.2813 -0.3049,-0.2917 -0.4376,-0.3437 -0.2016,-0.084 -0.3759,-0.2137 -0.5624,-0.4687 -0.5254,-0.716 -0.1925,-1.1446 -0.6876,-2.5 -0.6244,-1.5421 -0.8546,-3.0471 -0.375,-3.5 0.3201,-0.2908 0.5274,-0.1235 0.6876,-0.063 0.103,0.038 0.033,-0.2093 -0.063,-0.5937 -0.3769,-1.5498 -0.5312,-4.6563 -0.5312,-4.6563 -0.198,-1.2944 -0.2592,-2.4725 0.5938,-4.2812 0.8489,-1.8499 1.8861,-1.4578 2.3124,-1.9375 1.7896,-2.0181 3.4189,-2.0568 4.6563,-2.5937 2.7758,-1.1996 5.1267,-0.132 7,0.6562 0.7844,0.3388 3.0784,0.583 3.8437,2.2812 0.4493,0.99 1.0353,1.2789 1.1876,2.8438 0.1637,0.731 0.2352,1.9043 0.1562,3.1875 -0.1028,1.5954 -0.3066,2.9189 -0.6875,4.4687 -0.092,0.3807 -0.1654,0.6318 -0.062,0.5938 0.1562,-0.062 0.3638,-0.258 0.6875,0.031 0.4758,0.4532 0.3783,2.0205 -0.25,3.5626 -0.4913,1.3553 -0.2227,1.6353 -0.5313,2.1874 -0.1369,0.2438 -0.2488,0.5427 -0.6562,0.6876 -0.1372,0.049 -0.412,0.187 -0.5,0.4687 -0.6473,2.1018 -0.4075,3.3541 -1.0625,4.8125 -0.2589,0.5406 -0.611,0.9501 -1.125,1.4375 -0.1104,0.8796 0.1466,2.6444 0.375,3.8437 0.2513,1.3326 1.6513,2.1126 5.6875,2.6876 1.3035,0.1845 2.404,0.4713 3.4062,0.8437 4.6975,-4.2111 7.6563,-10.3198 7.6563,-17.125 0,-12.7025 -10.2975,-23 -23,-23 z"
           style="fill:#ffffff;fill-opacity:1;fill-rule:nonzero;stroke:none"
           inkscape:connector-curvature="0" />
      </g>
    </g>
  </g>
</svg>
