<?xml version="1.0" encoding="UTF-8" standalone="no"?>
<svg
   xmlns:dc="http://purl.org/dc/elements/1.1/"
   xmlns:cc="http://creativecommons.org/ns#"
   xmlns:rdf="http://www.w3.org/1999/02/22-rdf-syntax-ns#"
   xmlns:svg="http://www.w3.org/2000/svg"
   xmlns="http://www.w3.org/2000/svg"
   xmlns:sodipodi="http://sodipodi.sourceforge.net/DTD/sodipodi-0.dtd"
   xmlns:inkscape="http://www.inkscape.org/namespaces/inkscape"
   version="1.1"
   width="1770.0709"
   height="600"
   id="svg2"
   inkscape:version="0.48.5 r10040"
   sodipodi:docname="IBM_Cloud.svg"
   inkscape:export-filename="/Users/aviram/src/digital-business-card/passbook/logo.png"
   inkscape:export-xdpi="12.71"
   inkscape:export-ydpi="12.71">
  <metadata
     id="metadata10">
    <rdf:RDF>
      <cc:Work
         rdf:about="">
        <dc:format>image/svg+xml</dc:format>
        <dc:type
           rdf:resource="http://purl.org/dc/dcmitype/StillImage" />
        <dc:title></dc:title>
      </cc:Work>
    </rdf:RDF>
  </metadata>
  <defs
     id="defs8">
    <filter
       inkscape:collect="always"
       id="filter3980">
      <feGaussianBlur
         inkscape:collect="always"
         stdDeviation="13.125"
         id="feGaussianBlur3982" />
    </filter>
    <filter
       inkscape:collect="always"
       id="filter3998"
       x="-0.15560915"
       width="1.3112183"
       y="-1.2522832"
       height="3.5045664">
      <feGaussianBlur
         inkscape:collect="always"
         stdDeviation="26.410455"
         id="feGaussianBlur4000" />
    </filter>
    <filter
       inkscape:collect="always"
       id="filter4126"
       x="-0.0517104"
       width="1.1034208"
       y="-1.9888615"
       height="4.9777231">
      <feGaussianBlur
         inkscape:collect="always"
         stdDeviation="21.546"
         id="feGaussianBlur4128" />
    </filter>
  </defs>
  <sodipodi:namedview
     pagecolor="#ffffff"
     bordercolor="#666666"
     borderopacity="1"
     objecttolerance="10"
     gridtolerance="10"
     guidetolerance="10"
     inkscape:pageopacity="0"
     inkscape:pageshadow="2"
     inkscape:window-width="1680"
     inkscape:window-height="1001"
     id="namedview6"
     showgrid="false"
     inkscape:zoom="0.41489169"
     inkscape:cx="848.03919"
     inkscape:cy="139.19936"
     inkscape:window-x="0"
     inkscape:window-y="0"
     inkscape:window-maximized="1"
     inkscape:current-layer="svg2"
     fit-margin-top="0"
     fit-margin-left="0"
     fit-margin-right="0"
     fit-margin-bottom="0" />
  <path
     sodipodi:type="arc"
     style="opacity:0.55217393;fill:#000000;fill-opacity:1;stroke:none;filter:url(#filter3998)"
     id="path3984"
     sodipodi:cx="1519.6737"
     sodipodi:cy="560.23059"
     sodipodi:rx="203.66762"
     sodipodi:ry="25.30781"
     d="m 1723.3413,560.23059 a 203.66762,25.30781 0 1 1 -407.3352,0 203.66762,25.30781 0 1 1 407.3352,0 z"
     transform="matrix(1,0,0,0.51034591,-30.269456,251.89074)" />
  <path
     d="m 0,100 0,27.367 194.64844,0 0,-27.367 L 0,100 z m 222.22657,0 0,27.367 277.3828,0 C 499.60936,127.367 471.27625,100 433.75,100 l -211.52343,0 z m 331.79687,0 0,27.367 167.8125,0 L 711.875,100 554.02344,100 z m 288.125,0 -9.96094,27.367 166.28906,0 0,-27.367 -156.32812,0 z M 0,153.22221 l 0,27.36699 194.64844,0 0,-27.36699 -194.64844,0 z m 222.22657,0.0388 0,27.32823 309.57031,0 c 0,1e-5 -3.61563,-21.06282 -9.92188,-27.32823 l -299.64843,0 z m 331.79687,0 0,27.32823 186.21094,0 -9.21876,-27.32823 -176.99218,0 z m 268.20312,0 -9.21875,27.32823 185.46875,0 0,-27.32823 -176.25,0 z m -766.289064,53.18344 0,27.40575 84.296874,0 0,-27.40574 -84.296874,0 z m 222.226574,0 0,27.40575 84.29686,0 0,-27.40574 -84.29686,0 z m 166.28906,0 0,27.40575 84.29687,0 c 10e-6,0 5.35156,-14.47301 5.35156,-27.40574 l -89.64843,0 z m 165.50781,0 0,27.40575 149.45313,0 -9.96094,-27.40574 -139.49219,0 z m 193.90625,0 -10,27.40575 150.19531,0 0,-27.40574 -140.19531,0 z m -747.929694,53.26098 0,27.36698 84.296874,0 0,-27.36698 -84.296874,0 z m 222.226574,0 0,27.36698 215.3125,0 c 1e-5,-10e-6 18.01124,-14.04228 23.74999,-27.36698 l -239.06249,0 z m 331.79687,0 0,27.36698 84.29687,0 0,-15.23403 5.35156,15.23403 154.41407,0 5.74219,-15.23403 0,15.23403 84.29687,0 0,-27.36698 -158.24219,0 -8.39844,23.18053 -8.43749,-23.18053 -159.02344,0 z m -554.023444,53.22221 0,27.36698 84.296874,0 0,-27.36698 -84.296874,0 z m 222.226574,0 0,27.36698 239.06249,0 c -5.73999,-13.28128 -23.74999,-27.36698 -23.74999,-27.36698 l -215.3125,0 z m 331.79687,0 0,27.36698 84.29687,0 0,-27.36698 -84.29687,0 z m 99.60937,0 10.19532,27.36698 115.78125,0 9.6875,-27.36698 -135.66407,0 z m 150.19532,0 0,27.36698 84.29687,0 0,-27.36698 -84.29687,0 z m -803.828134,53.22221 0,27.36698 84.296874,0 0,-27.36698 -84.296874,0 z m 222.226574,0 0,27.36698 84.29686,0 0,-27.36698 -84.29686,0 z m 166.28906,0 0,27.36698 89.64843,0 c 2e-5,-12.91533 -5.35156,-27.36698 -5.35156,-27.36698 l -84.29687,0 z m 165.50781,0 0,27.36698 84.29687,0 0,-27.36698 -84.29687,0 z m 118.74999,0 9.88282,27.36698 77.61718,0 9.96094,-27.36698 -97.46094,0 z m 131.0547,0 0,27.36698 84.29687,0 0,-27.36698 -84.29687,0 z m -858.2422,53.22221 0,27.40575 194.64844,0 0,-27.40575 -194.64844,0 z m 220.70314,0 0,27.40575 299.64843,0 c 6.30625,-6.27533 9.92188,-27.40575 9.92188,-27.40575 l -309.57031,0 z m 333.3203,0 0,27.40575 138.71094,0 0,-27.40575 -138.71094,0 z m 192.34375,0 10.15625,27.40575 39.49219,0 9.53125,-27.40575 -59.17969,0 z m 111.87501,0 0,27.40575 140.23437,0 0,-27.40575 -140.23437,0 z M 1.52343,472.633 l 0,27.367 194.64844,0 0,-27.367 -194.64844,0 z m 220.70314,0 0,27.32824 211.52343,0 c 37.52624,-2e-5 65.85937,-27.32824 65.85937,-27.32824 l -277.3828,0 z m 333.3203,0 0,27.367 138.71094,0 0,-27.367 -138.71094,0 z m 211.60157,0 9.76563,27.28946 1.67968,0.0388 9.92188,-27.32824 -21.36719,0 z m 92.61719,0 0,27.367 140.23437,0 0,-27.367 -140.23437,0 z"
     id="path4"
     inkscape:export-filename="/Users/aviram/src/business-card/logo@2x.png"
     inkscape:export-xdpi="22.5"
     inkscape:export-ydpi="22.5"
     inkscape:connector-curvature="0"
     style="fill:#1f70c1" />
  <g
     inkscape:label="Blue Cloud"
     id="blueCloud"
     transform="matrix(0.5333333,0,0,0.5333333,1222.7376,100)">
    <path
       inkscape:label="Integral Cloud"
       style="fill:#008abf;fill-opacity:1;stroke:none"
       d="M 750,250 C 611.92881,250 500,361.92881 500,500 500,638.07119 388.07119,750 250,750 l 500,0 c 138.07119,0 250,-111.92881 250,-250 0,-138.07119 -111.92881,-250 -250,-250 z"
       id="cloud"
       inkscape:connector-curvature="0" />
    <path
       inkscape:label="Intersection 1"
       sodipodi:nodetypes="ccccccccccccc"
       inkscape:connector-curvature="0"
       id="intersection1"
       d="m 750,250 c -56.29166,0 -108.24389,18.60405 -150.03125,50 l 145,0 C 748.24971,283.84082 750,267.12749 750,250 z m -20.84375,100 -179.1875,0 c -11.55053,15.37913 -21.32874,32.15973 -29.125,50 l 179.1875,0 c 11.55053,-15.37913 21.32874,-32.15973 29.125,-50 z m -224.125,100 C 501.75029,466.15918 500,482.87251 500,500 c 56.29166,0 108.24389,-18.60405 150.03125,-50 z"
       style="fill:#00649d;fill-opacity:1;stroke:none" />
    <path
       inkscape:label="Intersection 2"
       inkscape:connector-curvature="0"
       id="intersection2"
       d="m 599.96875,300 c -18.9094,14.20236 -35.80072,31.08781 -50,50 59.72917,0 119.45833,0 179.1875,0 7.00755,-16.04789 12.35043,-32.83293 15.8125,-50 -48.33333,0 -96.66667,0 -145,0 z m -79.125,100 c -7.01481,16.04668 -12.32993,32.83645 -15.8125,50 48.33333,0 96.66667,0 145,0 18.89887,-14.21646 35.79149,-31.09313 50,-50 -59.72917,0 -119.45833,0 -179.1875,0 z"
       style="fill:#00e312;fill-opacity:1;stroke:none" />
    <path
       inkscape:label="IBM Cloud"
       style="fill:#008abf;fill-opacity:1;stroke:none"
       d="M 500,0 C 443.70834,0 391.75611,18.60405 349.96875,50 l 300.06246,0 C 608.24391,18.60405 556.29171,0 500,0 z M 299.96875,100 c -11.55053,15.37913 -21.32874,32.15973 -29.125,50 l 458.31246,0 c -7.7962,-17.84027 -17.5744,-34.62087 -29.125,-50 l -400.06246,0 z m -44.9375,100 C 251.75029,216.15918 250,232.87251 250,250 l 500.00001,0 c 0,-17.12749 -1.7503,-33.84082 -5.0313,-50 l -489.93746,0 z M 99.96875,300 c -18.93229,14.22433 -35.77892,31.06513 -50,50 l 679.18746,0 c 6.9381,-15.87633 12.2813,-32.60814 15.8125,-50 l -644.99996,0 z m -79.125,100 c -6.93801,15.87633 -12.28126,32.60814 -15.8125,50 l 644.99996,0 c 18.9323,-14.22433 35.779,-31.06513 50,-50 L 20.84375,400 z M 0,500 c 0,17.12749 1.75029,33.84082 5.03125,50 l 489.9375,0 C 498.24971,533.84082 500,517.12749 500,500 L 0,500 z m 20.84375,100.00004 c 7.79626,17.8402 17.57447,34.6208 29.125,50 l 400.0625,0 c 11.55053,-15.3792 21.32874,-32.1598 29.125,-50 l -458.3125,0 z m 79.125,100 c 41.78736,31.3959 93.73959,50 150.03125,50 56.29166,0 108.24389,-18.6041 150.03125,-50 l -300.0625,0 z"
       id="ibmcloud"
       inkscape:connector-curvature="0" />
  </g>
</svg>
